<?xml version="1.0" encoding="UTF-8" standalone="no"?>
<svg width="309px" height="329px" viewBox="0 0 309 329" version="1.1" xmlns="http://www.w3.org/2000/svg" xmlns:xlink="http://www.w3.org/1999/xlink">
    <!-- Generator: Sketch 42 (36781) - http://www.bohemiancoding.com/sketch -->
    <title>bus</title>
    <desc>Created with Sketch.</desc>
    <defs>
        <polygon id="path-1" points="0 0.39348429 0 53.7717666 41.7282228 53.7717666 41.7282228 0.39348429 3.2943066e-20 0.39348429"></polygon>
        <polygon id="path-3" points="39.2905376 47.385464 0.423739074 47.385464 0.423739074 0.368330857 39.2905376 0.368330857 39.2905376 47.385464"></polygon>
    </defs>
    <g id="MAIN" stroke="none" stroke-width="1" fill="none" fill-rule="evenodd">
        <g id="01---OLÃ-ONDA---b" transform="translate(-966.000000, -10108.000000)">
            <g id="bus" transform="translate(966.000000, 10108.000000)">
                <g id="Capa_1" fill-rule="nonzero" fill="#89DAC1">
                    <path d="M308.145455,51.0482979 L284.031682,51.0482979 L284.031682,133.90734 L293.672909,133.90734 L293.672909,171.954787 L275.346727,171.954787 L275.346727,46.2371277 C275.353864,20.6987234 254.622727,0 229.053136,0 L76.6560909,0 C51.0936364,0 30.3625,20.6987234 30.3625,46.2371277 L30.3625,169.545638 L14.4484091,169.545638 L14.4484091,129.074787 L24.5749091,129.074787 L24.5749091,46.2371277 L0.468272727,46.2371277 L0.468272727,129.074787 L10.5947727,129.074787 L10.5947727,173.40883 L30.3625,173.40883 L30.3625,263.965745 C30.3625,281.457021 40.1107727,296.703085 54.4762727,304.550638 L54.4762727,328.485319 L94.9822727,328.485319 L94.9822727,310.195745 L209.756409,310.195745 L209.756409,328.492447 L250.276682,328.492447 L250.276682,305.013936 C265.163136,297.344574 275.346727,281.841915 275.346727,263.958617 L275.346727,175.796596 L297.533682,175.796596 L297.533682,133.900213 L308.145455,133.900213 L308.145455,51.0482979 L308.145455,51.0482979 Z M99.8135909,9.62234043 L207.829591,9.62234043 L207.829591,34.6831915 L99.8135909,34.6831915 L99.8135909,9.62234043 Z M111.381636,262.027021 L51.5860455,262.027021 L51.5860455,235.070213 L111.381636,235.070213 L111.381636,262.027021 Z M256.057136,262.027021 L196.261545,262.027021 L196.261545,235.070213 L256.057136,235.070213 L256.057136,262.027021 Z M256.057136,175.32617 C256.057136,175.32617 244.481955,211.940957 151.894773,211.940957 C59.2933182,211.940957 49.6449545,175.32617 49.6449545,175.32617 L49.6449545,48.1544681 L256.057136,48.1544681 L256.057136,175.32617 Z" id="Shape"></path>
                </g>
                <g id="Page-1" transform="translate(74.000000, 61.000000)">
                    <path d="M146.943403,109.672016 C146.826726,116.303551 144.301157,119.222617 137.659688,120.079201 C128.690757,121.235892 119.67078,120.361691 110.677542,120.597403 C108.836234,120.646004 108.196942,119.51908 108.179318,117.882459 C108.156834,115.858857 108.264395,113.829179 108.142249,111.81226 C107.970272,108.973992 109.082349,107.791785 112.026618,107.873191 C117.791188,108.032965 123.563657,107.937587 129.333088,107.933334 C130.344288,107.932119 131.357311,107.887164 132.36608,107.813655 C133.775318,107.710987 134.628518,106.980157 134.66498,105.516675 C134.702049,104.027678 133.787472,103.254931 132.442042,103.12614 C130.835303,102.972441 129.209118,103.012536 127.590834,102.991881 C123.547249,102.94085 119.500626,103.104269 115.480134,102.40746 C111.598195,101.734343 108.962634,99.7435464 108.148326,95.7759251 C107.222811,91.2694459 107.131049,86.7325915 108.083303,82.2194298 C108.925565,78.2281157 111.434726,75.7403789 115.435772,75.1304429 C124.893288,73.6894388 134.428588,74.6735984 143.927426,74.4542888 C145.384065,74.420876 146.085949,75.3783053 146.209918,76.777999 C146.228149,76.9790835 146.233011,77.182598 146.23058,77.38429 C146.098103,88.7944667 147.729757,86.9956416 137.032549,87.1183578 C132.579988,87.1693883 128.126818,87.1481256 123.673649,87.1803234 C122.002495,87.1924735 120.615742,87.5843148 120.694134,89.7026881 C120.767057,91.6758674 122.199995,91.9212998 123.665749,91.9492451 C127.308257,92.0185008 130.955626,91.9134022 134.595095,92.0482686 C136.855711,92.1333194 139.141849,92.3580966 141.352026,92.8258762 C145.050442,93.6077363 146.867442,96.6768564 146.919095,101.755606 C145.92248,104.397649 145.88298,107.036655 146.943403,109.672016" id="Fill-1" fill="#91C242"></path>
                    <g id="Group-5" transform="translate(0.000000, 24.317248)">
                        <mask id="mask-2" fill="white">
                            <use xlink:href="#path-1"></use>
                        </mask>
                        <g id="Clip-4"></g>
                        <path d="M5.39679385,45.5379169 L5.57484769,45.6235752 L5.58639385,45.4814188 L5.39679385,45.5379169 Z M29.0026015,12.2095331 C29.0244785,11.2970591 28.9746477,10.4070629 28.5030785,9.5796398 C27.5939708,7.98129165 26.1130246,7.54267236 24.4212092,7.50804452 C23.3723323,7.4861743 22.3969862,7.58216024 22.0317631,8.82876245 C20.8175938,12.9713455 19.5997785,17.1121061 18.36434,21.2486141 C18.0143092,22.420493 18.5028938,22.6665329 19.5712169,22.5432092 C23.4075785,22.1021599 28.9333246,16.0732709 29.0026015,12.2095331 L29.0026015,12.2095331 Z M8.96698615,43.8903608 C10.7268631,44.3976282 12.2515631,44.8951756 13.8042169,45.2754743 C21.6173169,47.186688 27.7452862,42.843628 28.5273862,34.8695049 C28.9223862,30.8344504 26.9492092,28.0709059 23.0052862,27.0861387 C21.5456092,26.7222427 19.9613554,26.5430284 18.6870246,25.8286014 C17.1981785,24.9938882 17.1453092,25.6797624 16.7983169,26.8133685 C14.9691631,32.7796845 13.2560785,38.810396 8.96698615,43.8903608 L8.96698615,43.8903608 Z M8.82600154,11.7046956 C7.39792462,11.4197753 5.74986308,13.4950156 4.66513231,11.795214 C3.70497846,10.2898143 5.17620154,8.76801185 5.88720154,7.37621573 C7.15970923,4.88544134 9.39601692,3.51369291 11.9477169,2.65771702 C19.1968785,0.225263206 26.5760862,-0.40958051 34.0251785,1.55327121 C37.5789631,2.48943788 40.7195169,4.27550536 41.5131631,8.24798676 C42.3074169,12.2253282 40.8562477,15.5945562 37.9107631,18.335623 C35.8895785,20.2164615 33.5171477,21.5262443 30.4616708,22.6914407 C32.3509862,23.2807215 33.84044,23.6561601 35.26244,24.2053455 C40.53964,26.2410979 42.5286169,30.5294824 40.7584092,35.9150227 C40.0540938,38.0589112 38.9845554,39.9986777 37.3808554,41.5939883 C31.6703708,47.2741689 24.90554,51.1287941 17.1301169,53.2374473 C13.8959785,54.1146859 10.7128862,53.8461682 7.56443231,52.9087866 C3.00127077,51.5504033 2.43368615,50.0705188 4.82617077,46.0214916 C-0.144752308,44.4650614 -0.689244615,43.6115155 0.587516923,38.3632716 C2.78189385,29.3418083 5.81124,20.57732 9.00162462,11.8675072 C9.12194769,11.7678762 9.24287846,11.6688528 9.36380923,11.5698293 C9.29939385,11.5121162 9.19547846,11.3948676 9.17785538,11.4070177 C9.05084769,11.491461 8.94085538,11.6026346 8.82600154,11.7046956 L8.82600154,11.7046956 Z" id="Fill-3" fill="#04A1DF" mask="url(#mask-2)"></path>
                    </g>
                    <path d="M53.4887731,62.6917586 C58.4037885,58.1670543 59.9327423,52.8398346 59.9704192,46.901464 C59.9734577,46.3802239 59.8683269,45.8030932 59.3183654,45.6724795 C58.6371423,45.5108829 58.2075038,46.0649283 57.8678038,46.5606532 C56.2002962,48.990677 55.0991577,51.7013685 54.2125346,54.4807082 C53.4292192,56.9356397 52.5480654,59.4300592 53.4887731,62.6917586 M87.5286577,55.9447975 C87.5007038,54.7388982 88.39705,53.9375979 88.82365,52.9406806 C89.6361346,51.040402 90.1089192,49.145591 89.3626731,47.0934359 C88.7458654,45.3954567 87.9121115,45.0230556 86.5861269,46.4409745 C83.8047192,49.4147161 81.4699654,52.6794531 80.2412115,56.602119 C79.6657269,58.439217 79.3667423,60.3698709 80.2570115,62.2093989 C80.7984654,63.3284248 81.6255346,64.4954438 83.0542192,63.7676516 C86.4566885,62.0338297 89.1116962,59.3984689 91.89675,56.5237507 C90.1107423,55.8433441 88.7458654,56.7564255 87.5286577,55.9447975 M53.7190885,64.2500114 C54.8117192,65.9692532 56.2009038,65.6879779 57.5694269,65.3307644 C59.5705577,64.8089168 61.1870192,63.5659597 62.8508808,62.4159509 C63.7593808,61.7871823 64.8125115,60.6942791 65.8066962,61.1578061 C68.2745346,62.3096374 68.47325,60.6505386 69.1508269,59.0661631 C72.9732115,50.1273206 79.1607346,43.7236004 88.8534269,41.2966141 C91.5771038,40.6143849 94.3019962,40.9958987 96.8688885,42.1349723 C100.515042,43.7533682 101.463042,45.8516937 100.230035,49.6577185 C99.9128192,50.6358031 99.5791962,51.2311589 101.043735,51.4279908 C102.234204,51.5883724 102.077419,52.7493163 102.062835,53.6466025 C101.980188,58.6919394 101.293496,63.7676516 102.792673,68.7303677 C103.066742,69.6391966 102.481535,70.0395431 101.940081,70.4666197 C100.669396,71.4708271 99.36225,72.3930211 97.7439654,72.8200978 C94.1652654,73.765377 91.7642731,72.3693284 91.0399038,68.7200401 C90.72755,67.1447772 90.65645,65.5209138 90.3556423,62.8612528 C87.8823346,65.537924 86.0003115,67.8355115 83.8436115,69.8372436 C81.6036577,71.9167364 79.0312962,73.6353708 75.7631269,73.5169071 C71.0182654,73.3449829 68.4143038,70.2795079 67.5835885,63.8466274 C64.0401346,67.0342111 60.4207192,69.8949566 56.00705,71.5443353 C53.9901192,72.2976427 51.9598192,72.7988351 49.7891423,72.6305559 C44.8978269,72.2520797 41.4017731,68.6185866 41.9243885,63.6661982 C42.9161423,54.2668661 47.1377808,46.7307548 55.8235269,42.2631561 C60.0980346,40.0639845 64.4314885,40.2845092 66.6197885,42.5602265 C68.9910038,45.0254856 69.3300962,49.5896778 67.0627962,53.6605752 C64.1337192,58.9203617 60.1934423,63.1139752 53.7190885,64.2500114" id="Fill-6" fill="#05A1DF"></path>
                    <g id="Group-10" transform="translate(66.238462, 74.132736)">
                        <mask id="mask-4" fill="white">
                            <use xlink:href="#path-3"></use>
                        </mask>
                        <g id="Clip-9"></g>
                        <path d="M37.4881738,0.381695987 C38.6640585,0.387771047 39.25352,0.978266829 39.2559508,2.15439835 C38.6458277,2.69811617 38.7412354,3.42955333 38.7412354,4.12818517 C38.7388046,13.3215727 38.7394123,22.5149602 38.7418431,31.7071327 C38.7424508,32.4075871 38.6549431,33.1384167 39.2766123,33.673022 C39.5148277,41.5062037 36.7200508,45.1457718 29.09412,46.5327079 C22.6689892,47.7021568 16.1879508,47.6772491 9.78105077,46.4081692 C3.61965846,45.1876897 0.620089231,41.9302428 0.514958462,35.7992928 C0.325358462,24.7718448 0.487612308,13.7383218 0.503412308,2.70783626 C0.577550769,2.65498325 0.722181538,2.58329754 0.713673846,2.55170724 C0.675389231,2.4046908 0.595173846,2.26860946 0.530150769,2.1294906 C0.554458462,0.96611671 1.13845077,0.368938363 2.31251231,0.368330857 C5.32362769,1.26561714 8.33717385,1.2303818 11.3531508,0.392023589 C13.1853431,1.13075082 13.2376046,2.66652586 13.23092,4.32805463 C13.1974969,13.2158667 13.2047892,22.1036787 13.2218046,30.9914907 C13.2290969,34.5229228 14.0039046,35.4347892 17.5200123,35.9074288 C18.8113585,36.0811755 20.1488892,36.0854281 21.4499585,35.978507 C25.7639662,35.6243311 26.5794892,34.6899869 26.5825277,30.2873913 C26.5886046,21.5010328 26.5758431,12.7140667 26.5934662,3.9271007 C26.5965046,2.45207626 26.29752,0.758957181 28.4511815,0.384126011 C31.4635123,1.24556945 34.4758431,1.24739196 37.4881738,0.381695987" id="Fill-8" fill="#91C141" mask="url(#mask-4)"></path>
                    </g>
                    <path d="M40.8162615,115.118793 C47.7433462,113.824805 54.0116923,111.2587 59.0616154,105.943023 C55.7199154,106.445431 52.3788231,106.955736 49.0346923,107.442348 C48.2179538,107.562026 47.1702923,108.323231 46.6416,107.285004 C46.1518,106.322714 46.9515231,105.672683 47.8290308,105.178781 C48.9319923,104.55548 49.059,103.590153 48.9113308,102.32411 C48.5886462,99.5532755 49.2036308,96.7508506 48.5473231,93.9429581 C48.1808846,92.3774153 49.6958615,92.0475396 50.9021308,91.7601892 C55.1705615,90.7407943 57.4500154,86.9062167 60.8658538,84.6699873 C61.6424846,84.1615048 61.9323538,83.0157486 61.2790846,81.3098719 C56.9748,85.8540164 52.4766615,89.7554196 45.7361385,89.6503211 C45.0956308,89.0458527 46.8312,86.9967351 45.1752385,86.8934591 C43.9088077,86.8144833 42.1708077,85.911122 41.0629846,87.4104466 C40.0700154,88.7536423 40.1241,90.2274517 41.0654154,91.6077052 C41.5084231,92.2571291 41.8888385,92.8348673 40.9092385,93.2917117 C37.9078462,94.6926205 37.5371538,97.6505669 36.8644385,100.346071 C36.6420231,101.236067 36.4269,101.864228 35.5803846,102.123633 C33.2662923,102.83563 31.3915615,104.084055 30.1877231,106.249206 C29.9659154,106.648945 29.6468769,107.182943 29.0306769,106.711518 C28.3221077,106.169623 27.7745769,105.689086 27.7915923,104.547582 C27.8778846,98.7938931 27.7946308,93.0377742 27.7794385,87.2828704 C27.7715385,84.0436487 27.7988846,80.8038195 27.7721462,77.5645977 C27.7587769,75.9790072 28.1859846,74.4936552 29.9543692,74.5082353 C37.9394462,74.575061 45.9524769,73.7919858 53.9041308,74.9292369 C58.4411615,75.5774458 61.9992,77.946719 63.2127615,82.5285288 C64.4409077,87.1680518 64.4056615,91.8021071 60.3730154,95.4003649 C59.4098231,96.2593783 58.8793077,96.5479436 60.6458692,97.4282197 C64.6274692,99.4117267 65.6860692,103.31799 65.7693231,107.41501 C65.8610846,111.982847 64.0234231,115.666763 60.0011077,118.079169 C55.8451,120.572374 51.1974692,120.429002 46.6008846,120.526203 C46.1050077,120.537139 45.7245923,120.43933 45.4213538,119.860377 C43.5083385,116.214126 43.4828154,116.227491 40.8162615,115.118793" id="Fill-11" fill="#91C242"></path>
                    <path d="M148.244533,31.5615135 C143.229248,39.5641894 141.217787,48.1458184 139.888156,57.2869604 C141.450533,56.9528322 142.026625,55.8356287 142.825741,55.0744238 C145.324572,52.693608 147.935218,50.4604161 150.964564,48.7836997 C152.46131,47.9550616 154.101472,46.9508542 155.782348,48.1051155 C157.544048,49.3146599 157.380579,51.217976 157.012925,53.0739067 C156.875587,53.7676785 156.79051,54.4717779 156.636764,55.1612971 C155.688156,59.4223438 155.893556,63.6481552 157.470518,67.6941448 C158.393602,70.062203 157.567748,71.1757614 155.519825,72.1975864 C149.795972,75.0540794 145.994856,72.9879517 145.532402,66.5969891 C145.423625,65.0915894 145.516602,63.5716095 145.516602,61.8219923 C143.205548,63.3049144 141.682064,65.4366527 139.855948,67.2257578 C137.753333,69.2858104 135.644033,71.334928 132.999356,72.6805537 C129.896479,74.2588541 128.307972,73.5262019 127.380025,70.2031444 C126.270379,66.233093 127.098664,62.3298673 128.102572,58.5299176 C130.310318,50.1724583 133.787533,42.3265189 138.450356,35.0425226 C140.329341,32.1076614 142.713318,29.614457 146.225172,28.5968845 C149.35661,27.6886631 152.298448,28.0404091 154.635633,30.481368 C156.876195,32.8214809 157.212856,35.6725063 156.226572,38.6772307 C154.735902,43.2195527 151.708379,46.4994773 147.627118,48.871788 C146.752648,49.3802705 145.689187,50.1038101 144.830518,49.426441 C143.757333,48.5795777 144.844495,47.5735478 145.245572,46.7509848 C147.031579,43.0919764 148.446895,39.3230095 148.903272,35.2533272 C149.020556,34.2078095 149.397933,33.0924285 148.244533,31.5615135" id="Fill-13" fill="#05A1DF"></path>
                    <path d="M120.463393,46.3712936 C116.91447,49.3766255 114.166485,59.484917 115.641962,63.3535148 C116.365116,65.2489334 117.604201,65.7981188 119.460093,64.902655 C121.399239,63.9670958 123.034539,62.6372653 124.516093,61.0966302 C124.863693,60.7357717 125.245932,60.3263127 125.813516,60.5778202 C126.39447,60.8354027 126.295416,61.4283285 126.240724,61.8882105 C126.146532,62.6828283 126.00737,63.4883812 125.755178,64.2459411 C124.053639,69.3587111 117.648562,73.6349455 112.284462,73.275302 C107.678762,72.9660815 104.405124,69.6053586 104.241655,65.0174736 C103.949962,56.832546 111.109185,45.137449 118.52607,41.7888762 C121.071085,40.6400824 123.673224,40.4329229 125.905278,42.4565252 C127.920993,44.2839031 127.807962,46.6130809 126.796762,48.8821156 C125.561932,51.6535578 123.761947,53.9383876 120.506539,54.4183173 C119.196355,54.6115042 118.934439,53.9019373 119.466778,52.7592186 C120.364947,50.8303872 121.113016,48.863283 120.463393,46.3712936" id="Fill-15" fill="#05A1DF"></path>
                    <g id="Group-19" transform="translate(62.592308, 0.017010)" fill="#16A1DF">
                        <path d="M43.6392962,20.3513278 C41.7834038,20.3100174 42.6214115,18.9820094 42.6584808,18.1503337 C42.7800192,15.4615124 42.4360654,12.8941923 40.8712577,10.6330551 C39.3107038,8.37860054 37.1169346,7.56089753 34.5172269,8.38649812 C32.8886115,8.90409319 31.6562115,9.87367268 32.3283192,11.9987285 C33.1371577,14.5551135 32.3501962,17.1291162 32.1830808,19.6933988 C32.1454038,20.2741745 32.1223115,21.0013591 31.2423731,20.9254209 C29.9996423,20.8184998 30.5830269,19.9442988 30.6547346,19.3325403 C31.1396731,15.2002848 30.5812038,11.2454211 28.4050577,7.65627597 C25.5738192,2.98698525 20.1325423,1.86795929 16.2190038,5.13148125 C13.9954577,6.98619691 12.5801423,9.30565462 13.5962038,12.3158466 C14.6067962,15.3084209 16.8971885,16.1637893 20.1872346,15.6346516 C16.9737577,16.1249089 16.0196808,18.3659983 15.2321115,21.1198228 C15.9449346,18.0045323 14.9872115,15.8436336 12.6500269,14.2392104 C12.3376731,13.1882251 11.94875,12.1536425 11.7287654,11.0838245 C11.1684731,8.35490781 9.72277308,7.44182637 7.14980385,8.47762401 C4.95421154,9.36093766 3.53038846,10.9197979 3.51519615,13.478613 C3.51094231,14.1590196 4.18608846,15.1304217 2.89899615,15.4335671 C2.87711923,15.2537454 2.83032692,15.0812137 2.75861923,14.914757 C2.69967308,14.6778297 2.64133462,14.4409024 2.58299615,14.2039751 C2.44140385,12.7903087 2.39339615,11.3116393 0.456680769,11.1451826 C0.456680769,10.8055868 0.457288462,10.465991 0.457896154,10.1263952 C0.671803846,10.1500879 0.885711538,10.1737806 1.10022692,10.1974734 C1.36821923,10.312292 1.63681923,10.4277181 1.90541923,10.5425367 C2.92148077,10.6354851 3.20345,9.80198698 3.69325,9.1811159 C4.79378077,7.78567474 6.45338846,6.29485514 7.94891923,6.65753619 C11.6479423,7.55603749 13.0541423,4.93221929 15.2229962,3.08175618 C20.2480038,-1.2048058 26.8724577,0.176055224 30.2919423,6.18003651 C31.2350808,7.83609773 31.7327808,8.19999379 33.5406654,7.13989591 C37.0203115,5.10049844 40.2301423,6.43640402 42.4415346,10.4088854 C42.8170885,10.8596548 43.19325,11.3104242 43.5688038,11.7611937 C43.6332192,12.3857098 43.6976346,13.0108334 43.76205,13.6353495 C43.7802808,14.6626421 43.7985115,15.6905421 43.8167423,16.7178347 C43.8222115,17.5100225 43.8282885,18.3028177 43.8337577,19.095613 C43.7687346,19.5141846 43.7037115,19.9327562 43.6392962,20.3513278" id="Fill-17"></path>
                    </g>
                    <path d="M110.613065,30.178344 C111.553773,30.2117568 112.509065,30.0465152 112.581381,28.9074416 C112.656735,27.7282725 111.717242,27.5314406 110.752227,27.4925602 C109.740419,27.4524648 109.012404,27.6274265 109.054942,28.9153391 C109.091404,30.0137099 109.689981,30.2390946 110.613065,30.178344 M117.011458,37.9574577 C114.256788,38.7557205 112.396642,38.351729 111.517312,35.5881845 C111.261473,34.7832391 110.933927,33.5779473 109.814558,33.7644516 C108.511058,33.9813312 109.101735,35.2534487 109.099912,36.0413839 C109.096873,37.4550502 108.864735,38.3243913 107.13585,38.350514 C105.255042,38.3784593 105.003458,37.4410776 105.041135,35.8901149 C105.119527,32.6539307 105.136542,29.412279 105.035665,26.1767023 C104.981581,24.4349828 105.634242,23.8122892 107.338212,23.9362204 C108.949812,24.0528615 110.585112,23.8754698 112.192458,24.0224862 C115.641719,24.3377818 117.485458,27.2550254 116.42625,30.5610727 C115.282573,34.1313852 115.282573,34.1313852 117.011458,37.9574577" id="Fill-20" fill="#0EA2E0"></path>
                    <path d="M62.0424677,28.6773791 C61.7604985,27.3025931 60.6715138,27.4884899 59.6906985,27.4708722 C58.6570138,27.4520396 58.3081985,28.013375 58.3458754,28.9847771 C58.39996,30.3589555 59.3844215,30.1918914 60.2716523,30.2101166 C61.3187062,30.2325943 61.9987138,29.8255653 62.0424677,28.6773791 M59.1237215,23.9625254 C64.2447446,23.970423 66.1851062,25.348854 66.1200831,28.9331391 C66.1146138,29.235677 66.1966523,29.6135457 66.0508062,29.8279953 C64.3948446,32.2561966 64.0630446,34.6357974 66.11036,37.0415209 C66.5035369,37.5032255 66.30786,38.1332091 65.7275138,38.2006423 C64.4471062,38.3494813 63.0263215,38.6599168 62.0248446,37.5366383 C61.5076985,36.9570776 61.3338985,36.0846991 60.9194523,35.3963948 C60.4837369,34.6728553 60.2929215,33.4396182 59.0799677,33.7998692 C58.06026,34.1024072 58.4959754,35.1655426 58.4661985,35.9054848 C58.4163677,37.1393294 58.6217677,38.3786415 56.7038908,38.3312561 C55.2496831,38.2954132 54.4505677,37.9764726 54.5247062,36.282746 C54.63956,33.6631804 54.5356446,31.0345021 54.5587369,28.4100764 C54.6024908,23.3252516 53.9407138,24.0250985 59.1237215,23.9625254" id="Fill-22" fill="#0BA1DF"></path>
                    <path d="M42.6550777,31.2171184 C42.6538623,23.8146584 42.6538623,23.817696 50.16737,23.9665349 C51.4696546,23.9920502 52.8436469,23.6931572 52.7859162,25.8273256 C52.7324392,27.8059725 51.4198238,27.4232438 50.2633854,27.4821718 C50.1625085,27.4870319 50.0519085,27.4548341 49.96197,27.4864244 C48.8705546,27.8697606 46.8123008,26.5447902 46.7800931,28.4815191 C46.7515315,30.1521605 48.7149854,29.2287514 49.7675085,29.33628 C50.9160469,29.4535287 51.6355546,29.5531596 51.6531777,30.9917337 C51.6720162,32.5366213 50.9579777,32.9211726 49.6234854,32.8294392 C49.0212623,32.7875213 48.4129623,32.8312617 47.8077008,32.8464494 C47.1319469,32.8622445 46.6378931,33.0955268 46.6336392,33.8792095 C46.6293854,34.70238 47.1750931,34.8591166 47.8362623,34.8639766 C48.9465162,34.8724817 50.0579854,34.9034645 51.1664162,34.8688367 C52.21347,34.8360314 52.8910469,35.0626311 52.8892238,36.334141 C52.8880085,37.5163476 52.6388546,38.2927402 51.2587854,38.2793751 C48.9374008,38.2575049 46.6160162,38.2526448 44.2958469,38.2969927 C42.8932931,38.3243305 42.6265162,37.5266752 42.6490008,36.3626938 C42.6824238,34.6477045 42.6575085,32.9321077 42.6550777,31.2171184" id="Fill-24" fill="#05A1DF"></path>
                    <path d="M87.2234138,30.9857802 C87.2221985,23.9150184 87.2228062,23.8967932 94.3261215,23.9867041 C95.5810062,24.0018918 97.2904446,23.3275602 97.2169138,25.7970718 C97.1506754,28.0211511 95.6217215,27.3735498 94.4361138,27.4756108 C93.9353754,27.5187437 93.4236985,27.4415904 92.9241754,27.493836 C92.1985908,27.5709892 91.0919831,27.1882605 91.11386,28.4488353 C91.1357369,29.6845024 92.2259369,29.3187838 92.9600292,29.3740669 C93.6631292,29.4275274 94.3723062,29.3843945 95.0778369,29.4074797 C96.0300908,29.437855 96.2075369,30.105504 96.20146,30.866709 C96.1959908,31.6607193 96.3217831,32.5974934 95.1999831,32.7524075 C94.4063369,32.8617585 93.5895985,32.7949329 92.7837985,32.8295607 C91.9968369,32.8641885 91.0366831,32.7256772 91.0895523,33.9601293 C91.1351292,35.005647 91.9877215,34.849518 92.6640831,34.8683507 C93.5713677,34.8932584 94.4829062,34.9175587 95.38776,34.8640981 C96.6693831,34.7893749 97.5177215,35.0232647 97.4934138,36.6216128 C97.4684985,38.2819266 96.4548677,38.3329571 95.2668292,38.2928617 C95.0650754,38.2861791 94.8633215,38.2898242 94.6615677,38.2928617 C87.2246292,38.3967452 87.2246292,38.3967452 87.2234138,30.9857802" id="Fill-26" fill="#05A1DF"></path>
                    <path d="M123.918488,29.8366219 C124.13665,30.91859 122.403512,31.8328864 123.690604,32.8741516 C124.097758,33.2034199 125.143596,33.214355 125.339273,32.6852173 C125.807804,31.4191749 124.695727,30.6944203 123.918488,29.8366219 M119.448304,38.2979648 C117.950342,38.4194659 117.364527,37.9456113 117.960065,36.3673108 C119.350465,32.6870398 120.682527,28.9842911 121.973265,25.2675697 C122.40655,24.0209675 123.307758,23.9626469 124.370004,23.9480667 C125.446227,23.9328791 126.354119,24.0325101 126.783758,25.2481295 C128.127365,29.0511167 129.518981,32.8370938 130.878388,36.634006 C131.072242,37.1765088 131.455088,37.9389287 130.607965,38.1394057 C129.454565,38.4121759 128.056873,38.7432666 127.20975,37.6467184 C125.165473,35.0004225 123.312619,35.0903333 121.391704,37.7153665 C120.912235,38.370258 120.136212,38.2517943 119.448304,38.2979648" id="Fill-28" fill="#0BA1DF"></path>
                    <path d="M73.6031454,31.0373574 C73.6274531,28.4840099 73.5654685,25.8371065 76.32743,24.4890508 C78.7284223,23.3171718 81.2558146,23.2916566 83.5802377,24.6627975 C84.7312069,25.3413816 86.29723,26.501718 85.2246531,27.9408996 C84.44073,28.9930999 82.7385838,29.7372947 81.4399454,27.8364086 C80.8128069,26.9190746 79.68493,26.8996344 78.6828454,27.3680215 C77.7214762,27.8181834 77.5659069,28.7087871 77.5896069,29.670469 C77.6114838,30.5780829 77.5896069,31.4869118 77.5932531,32.3951332 C77.5975069,33.4163507 77.5452454,34.5092539 78.7788608,34.9004877 C79.8988377,35.2552712 81.0230685,35.2230734 81.7553377,34.11559 C83.0472915,32.1618509 84.4656454,33.6125751 85.2665838,34.3257871 C86.3731915,35.3111618 85.1146608,36.4083175 84.3635531,37.0401237 C82.0531069,38.9829277 79.3543454,39.061296 76.6744223,37.9641402 C73.5186762,36.6719751 73.5964608,33.808192 73.6031454,31.0373574" id="Fill-30" fill="#0EA2E0"></path>
                    <path d="M103.033198,31.0400304 C103.033198,32.7495522 102.965744,34.4627189 103.053252,36.1679881 C103.131036,37.681893 102.624828,38.3738422 101.015659,38.3683747 C99.4405208,38.3629071 98.9136515,37.7414286 98.9513285,36.1959334 C99.0339746,32.778105 99.0309362,29.3566315 98.9531515,25.938803 C98.9160823,24.2979294 99.65139,23.9066956 101.14449,23.9085181 C102.633336,23.9103406 103.090321,24.5445768 103.046567,25.9114652 C102.991875,27.6191644 103.033198,29.3305087 103.033198,31.0400304" id="Fill-32" fill="#19A4E0"></path>
                    <path d="M72.7343277,14.1948017 C72.66262,13.2859728 72.25182,12.6280439 71.2813354,12.5709383 C70.6317123,12.5326655 69.9334738,12.8740838 70.0325277,13.5617805 C70.1747277,14.5532303 71.1743815,14.9414266 71.9844354,15.2105517 C72.57572,15.4067761 72.7325046,14.7373046 72.7343277,14.1948017 M65.4912431,15.4505165 C66.7783354,15.1473711 66.1031892,14.1759691 66.1074431,13.4955624 C66.1226354,10.9367473 67.5464585,9.37788708 69.7420508,8.49457343 C72.31502,7.45877578 73.76072,8.37246473 74.3210123,11.1007739 C74.5409969,12.1705919 74.92992,13.2057821 75.2422738,14.2567673 C74.5361354,16.1054079 73.6507277,17.6071627 71.2381892,16.6017403 C70.9240123,16.4711265 70.2944431,16.5586074 70.08722,16.7906747 C67.5768431,19.6034272 66.7418738,16.8362376 65.4912431,15.4505165" id="Fill-34" fill="#E7F2FA"></path>
                    <path d="M71.7800685,31.2008373 C71.7794608,32.8186256 71.7156531,34.4394515 71.7976915,36.0523798 C71.8742608,37.5401618 71.4567762,38.2357561 69.7880531,38.2485138 C68.0044762,38.2618789 67.8628838,37.3591251 67.8865838,35.9715815 C67.9437069,32.6363738 67.9437069,29.2993436 67.8871915,25.9635285 C67.8640992,24.6142578 68.2080531,23.9605814 69.7327531,23.9259535 C71.3637992,23.8888957 71.8785146,24.5073367 71.80073,26.0461493 C71.7144377,27.7599236 71.7806762,29.4822029 71.7800685,31.2008373" id="Fill-36" fill="#04A1DF"></path>
                    <path d="M81.5969123,21.0209816 C87.9612738,15.2192998 88.2037431,11.9138599 82.7879892,8.6752457 C85.4284123,7.99787656 87.1925431,9.08834974 87.8300123,11.7905362 C88.7403354,15.6488065 85.8416431,20.2767868 81.5969123,21.0209816" id="Fill-38" fill="#19A4E0"></path>
                    <path d="M105.515317,107.805636 C104.893648,107.271031 104.981155,106.540201 104.980548,105.840355 C104.977509,96.6475746 104.976902,87.4541871 104.97994,78.2607996 C104.97994,77.5621677 104.883925,76.8307306 105.494048,76.2870127 C105.50134,86.7932206 105.508025,97.2994285 105.515317,107.805636" id="Fill-40" fill="#86BC1E"></path>
                    <path d="M39.2694415,109.462001 C37.2142262,108.681356 35.6032338,111.003244 34.4680646,108.740892 C33.8421415,107.493075 34.5847415,106.061183 35.7302415,105.785375 C37.9027415,105.262313 38.0771492,107.394051 39.2694415,109.462001" id="Fill-42" fill="#91C242"></path>
                    <path d="M106.16099,11.7781431 C105.785436,11.3273737 105.409275,10.8772118 105.033721,10.4258348 C105.755659,10.9179147 106.324459,10.3972821 106.98259,10.1961976 C110.445221,9.14095976 112.817652,10.95072 113.165859,15.4772468 C111.465536,12.2653628 109.807752,9.74178314 106.16099,11.7781431" id="Fill-44" fill="#19A4E0"></path>
                    <polygon id="Fill-46" fill="#8FC3E9" points="127.526054 20.7878208 112.285131 20.7878208 112.288169 20.4992555 127.528485 20.4992555"></polygon>
                    <path d="M58.3123308,20.810906 L43.5946308,20.810906 C43.5940231,20.7240327 43.5928077,20.6365518 43.5915923,20.5496785 L58.3086846,20.5496785 C58.3099,20.6365518 58.3111154,20.7240327 58.3123308,20.810906" id="Fill-48" fill="#8FC3E9"></path>
                    <path d="M146.943403,109.672016 C145.88298,107.036655 145.92248,104.397649 146.919095,101.755606 C147.510988,104.392789 147.54988,107.031188 146.943403,109.672016" id="Fill-50" fill="#91C141"></path>
                    <path d="M103.726635,74.5144319 C100.714305,75.3801278 97.7019738,75.3783053 94.6896431,74.5168619 C97.7019738,74.5162544 100.714305,74.5156469 103.726635,74.5144319" id="Fill-52" fill="#86BC1E"></path>
                    <path d="M106.408746,16.7346019 C106.390515,15.7073093 106.372285,14.6800167 106.354662,13.6521167 C107.960185,13.2681729 107.917038,14.1630292 108.003331,15.4065939 C108.106031,16.8895159 107.621092,17.104573 106.408746,16.7346019" id="Fill-54" fill="#E7F2FA"></path>
                    <path d="M77.59143,74.5245165 C74.5760608,75.3634822 71.5625146,75.39811 68.5513992,74.5008237 C71.5643377,74.5093288 74.5778838,74.5166189 77.59143,74.5245165" id="Fill-56" fill="#86BC1E"></path>
                    <path d="M109.113402,12.8243898 C110.909133,14.6001297 110.272879,15.8133191 110.413864,17.6425195 C108.708679,15.9822057 109.428795,14.7605113 109.113402,12.8243898" id="Fill-58" fill="#E7F2FA"></path>
                    <path d="M63.0501431,10.1434053 C63.0495354,10.4830011 63.0495354,10.822597 63.0489277,11.1621928 C62.6356969,11.2788339 62.2224662,11.3948676 61.8092354,11.5109012 C61.6232815,11.6269348 61.4379354,11.742361 61.2525892,11.8583946 C60.7688662,12.1876628 60.2851431,12.5169311 59.8008123,12.8449843 C59.6367354,12.6888552 59.4732662,12.5345487 59.3097969,12.3796347 C60.0280892,10.7509113 61.3929662,10.2029409 63.0501431,10.1434053" id="Fill-60" fill="#19A4E0"></path>
                    <path d="M65.1753038,14.2209245 C65.2336423,14.4578518 65.2919808,14.6947791 65.3509269,14.9317065 C65.0489038,15.6291233 64.7468808,16.3271476 64.4217654,17.0786325 C63.5005038,15.2081217 63.5005038,15.2081217 65.1753038,14.2209245" id="Fill-62" fill="#E7F2FA"></path>
                    <path d="M59.4197285,16.1967768 C58.1715285,14.9592872 58.3246669,13.6810947 59.3097362,12.379817 C59.4732054,12.534731 59.6366746,12.6890375 59.8007515,12.8451665 C59.37719,13.6981049 59.2678054,14.5814185 59.5388362,15.5023975 L59.4197285,16.1967768 Z" id="Fill-64" fill="#19A4E0"></path>
                    <path d="M59.4197285,16.1967768 L59.5388362,15.5023975 C60.0189131,15.8243757 60.5342362,16.1384563 60.3847438,16.8358731 C60.3616515,16.9452242 60.0766438,17.0946706 59.9435592,17.0685479 C59.4835362,16.9780295 59.4355285,16.5855807 59.4197285,16.1967768" id="Fill-66" fill="#E7F2FA"></path>
                    <path d="M61.2626769,14.4997697 C61.3696308,14.628561 61.4699,14.7500622 61.5701692,14.8709559 C61.3872538,14.9869895 61.2037308,15.1030231 61.0202077,15.2184493 C60.9594385,15.0635352 60.8245308,14.886751 60.8609923,14.7597823 C60.8938077,14.6461787 61.1162231,14.5872506 61.2626769,14.4997697" id="Fill-68" fill="#E7F2FA"></path>
                    <path d="M71.3937585,19.808582 C71.2588508,19.9124655 71.1288046,20.0959323 70.9872123,20.1056524 C70.6292815,20.1305601 70.4609508,19.8826977 70.5666892,19.561327 C70.6055815,19.4434709 70.8869431,19.3237922 71.0321815,19.3487 C71.1543277,19.3699627 71.24062,19.6008149 71.3937585,19.808582" id="Fill-70" fill="#E7F2FA"></path>
                    <path d="M106.231604,20.3683379 C106.296019,19.9497663 106.361042,19.5311947 106.426065,19.1126231 C106.732342,19.094398 107.039227,19.0761728 107.345504,19.0573401 L107.516265,19.2675372 C107.363127,19.9552339 106.966912,20.3604404 106.231604,20.3683379" id="Fill-72" fill="#E7F2FA"></path>
                    <path d="M61.8341508,17.3183543 C61.9289508,16.9848336 61.7120046,16.4180305 62.4072046,16.5352792 C62.4880277,16.5492518 62.5998431,16.6610329 62.6132123,16.7412237 C62.7311046,17.4362105 62.1647354,17.2205459 61.8305046,17.3147093 L61.8341508,17.3183543 Z" id="Fill-74" fill="#E7F2FA"></path>
                    <path d="M62.7160338,13.8774406 C62.67228,13.8136525 62.6285262,13.7498644 62.5847723,13.6860763 C62.6826108,13.6344383 62.7804492,13.5828002 62.8782877,13.5311622 C62.8892262,13.6107455 62.9293338,13.7018714 62.9025954,13.7656595 C62.8801108,13.8191201 62.7810569,13.8415978 62.7160338,13.8774406" id="Fill-76" fill="#E7F2FA"></path>
                    <path d="M72.1444408,18.0676522 C72.2167562,18.101065 72.3109485,18.1174677 72.3522715,18.1733582 C72.3784023,18.2085935 72.3231023,18.302757 72.3048715,18.3707976 C72.1851562,18.3155146 72.0654408,18.2602315 71.9457254,18.2049485 C72.0119638,18.1587781 72.0782023,18.1132151 72.1444408,18.0676522" id="Fill-78" fill="#E7F2FA"></path>
                    <path d="M107.345808,19.0575224 C107.560931,18.7647045 107.947423,18.3759007 108.158292,18.7519469 C108.412308,19.2057538 107.782738,19.1352831 107.515354,19.2671119 C107.515962,19.2677194 107.345808,19.0575224 107.345808,19.0575224" id="Fill-80" fill="#E7F2FA"></path>
                    <path d="M61.2525892,11.8585161 C61.4379354,11.7424825 61.6232815,11.6270563 61.8092354,11.5110227 C61.6232815,11.6270563 61.4379354,11.7424825 61.2525892,11.8585161" id="Fill-82" fill="#E7F2FA"></path>
                    <path d="M64.4975446,10.5592431 C64.2289446,10.4444245 63.9609523,10.3296059 63.6923523,10.2147873 C63.9609523,10.3296059 64.2289446,10.4444245 64.4975446,10.5592431" id="Fill-84" fill="#19A4E0"></path>
                    <path d="M66.7683692,76.2621657 C66.8333923,76.4012846 66.9142154,76.5373659 66.9525,76.6843824 C66.9604,76.7159727 66.8157692,76.7876584 66.7416308,76.8405114 C66.6565538,76.6436795 66.6656692,76.4511001 66.7683692,76.2621657" id="Fill-86" fill="#8DBF32"></path>
                    <path d="M61.8306262,17.3148308 C61.7838338,17.4004891 61.7370415,17.4861475 61.6902492,17.5718058 C61.7382569,17.4873625 61.7862646,17.4029192 61.8342723,17.3184758 L61.8306262,17.3148308 Z" id="Fill-88" fill="#E7F2FA"></path>
                    <path d="M8.96668231,68.2076696 C13.2557746,63.1277049 14.9694669,57.0969933 16.7980131,51.1306774 C17.1456131,49.9970713 17.1978746,49.3111971 18.6873285,50.1459103 C19.9610515,50.8603373 21.5453054,51.0395515 23.00559,51.4034476 C26.9495131,52.3876072 28.92269,55.1517593 28.5270823,59.1868138 C27.7449823,67.1609369 21.6176208,71.5039969 13.8045208,69.5927832 C12.2512592,69.2124845 10.7271669,68.7149371 8.96668231,68.2076696" id="Fill-90" fill="#F9FBFD"></path>
                    <path d="M29.0039385,36.5265989 C28.9334462,40.3903367 23.4077,46.4192258 19.5713385,46.8608826 C18.5030154,46.9835988 18.0144308,46.7375589 18.3644615,45.5656799 C19.5992923,41.4291719 20.8177154,37.2884114 22.0312769,33.1458283 C22.3965,31.8992261 23.3718462,31.8038477 24.4207231,31.8251104 C26.1131462,31.8597382 27.5940923,32.2983575 28.5032,33.8967057 C28.9747692,34.7241288 29.0246,35.6147325 29.0039385,36.5265989" id="Fill-92" fill="#F6F9FC"></path>
                    <polygon id="Fill-94" fill="#FCFDFD" points="5.39679385 69.855165 5.58639385 69.7986669 5.57484769 69.9408233"></polygon>
                    <path d="M8.82575846,36.0220045 C8.94061231,35.9199435 9.05060462,35.8081624 9.17822,35.7243266 C9.19584308,35.7121764 9.29975846,35.8294251 9.36356615,35.8871381 C9.24324308,35.9861616 9.12231231,36.0851851 9.00198923,36.1848161 L8.82575846,36.0220045" id="Fill-96" fill="#FCFDFD"></path>
                    <path d="M87.5287185,55.9445545 C88.7459262,56.75679 90.1108031,55.843101 91.8962031,56.5241152 C89.1117569,59.3988334 86.4567492,62.0341942 83.05428,63.7674086 C81.6255954,64.4958083 80.7985262,63.3281818 80.2570723,62.2091559 C79.3668031,60.3702354 79.6657877,58.438974 80.2412723,56.6024835 C81.4700262,52.6792101 83.80478,49.4144731 86.5861877,46.4407315 C87.9121723,45.0228126 88.7453185,45.3958213 89.3627338,47.0938004 C90.10898,49.145348 89.6361954,51.040159 88.8237108,52.9404376 C88.3971108,53.9373549 87.5007646,54.7386552 87.5287185,55.9445545" id="Fill-98" fill="#F6F9FC"></path>
                    <path d="M53.4887731,62.6917586 C52.5480654,59.4300592 53.4292192,56.9356397 54.2125346,54.4807082 C55.0991577,51.7013685 56.2002962,48.990677 57.8678038,46.5606532 C58.2075038,46.0649283 58.6371423,45.5108829 59.3183654,45.6724795 C59.8683269,45.8030932 59.9734577,46.3802239 59.9704192,46.901464 C59.9327423,52.8398346 58.4037885,58.1670543 53.4887731,62.6917586" id="Fill-100" fill="#F6F9FC"></path>
                    <path d="M110.613065,30.178344 C109.689981,30.2390946 109.091404,30.0137099 109.054942,28.9153391 C109.012404,27.6274265 109.740419,27.4524648 110.752227,27.4925602 C111.717242,27.5314406 112.656735,27.7282725 112.581381,28.9074416 C112.509065,30.0465152 111.553773,30.2117568 110.613065,30.178344" id="Fill-102" fill="#F6F9FC"></path>
                    <path d="M62.0421638,28.6812063 C61.99841,29.8257475 61.3184023,30.2327765 60.2713485,30.2102988 C59.3847254,30.1914661 58.3996562,30.3591378 58.3461792,28.9849593 C58.3085023,28.0135573 58.65671,27.4522218 59.6910023,27.4710545 C60.67121,27.4886722 61.7608023,27.3027753 62.0421638,28.6812063" id="Fill-104" fill="#E7F2FA"></path>
                    <path d="M123.918488,29.8366219 C124.695727,30.6944203 125.807804,31.4191749 125.339273,32.6852173 C125.143596,33.214355 124.097758,33.2034199 123.690604,32.8741516 C122.403512,31.8328864 124.13665,30.91859 123.918488,29.8366219" id="Fill-106" fill="#E7F2FA"></path>
                    <path d="M72.73135,14.197171 C72.7319577,14.7372438 72.5757808,15.4067154 71.9844962,15.2104909 C71.1738346,14.9413658 70.1747885,14.5531695 70.0325885,13.5617198 C69.9335346,12.8740231 70.6311654,12.5326047 71.2813962,12.5708776 C72.2512731,12.6279831 72.6626808,13.2859121 72.73135,14.197171" id="Fill-108" fill="#FCFDFD"></path>
                </g>
            </g>
        </g>
    </g>
</svg>