<?xml version="1.0" encoding="UTF-8" standalone="no"?>
<svg width="167px" height="67px" viewBox="0 0 167 67" version="1.1" xmlns="http://www.w3.org/2000/svg" xmlns:xlink="http://www.w3.org/1999/xlink">
    <!-- Generator: Sketch 43.1 (39012) - http://www.bohemiancoding.com/sketch -->
    <title>Page 1</title>
    <desc>Created with Sketch.</desc>
    <defs>
        <polygon id="path-1" points="23.8427459 0.0452875536 23.8427459 46.9612223 0.029225043 46.9612223 0.029225043 0.0452875536 23.8427459 0.0452875536"></polygon>
        <polygon id="path-3" points="0 44.600343 0 0.263087652 21.0657159 0.263087652 21.0657159 44.600343 1.8876527e-15 44.600343"></polygon>
    </defs>
    <g id="Symbols" stroke="none" stroke-width="1" fill="none" fill-rule="evenodd">
        <g id="Menu" transform="translate(-18.000000, 0.000000)">
            <g id="Group" transform="translate(18.000000, 0.000000)">
                <g id="Page-1">
                    <path d="M95.1640027,56.7210608 C95.2918673,51.9382188 96.9672356,47.5351 98.4345386,43.095968 C99.9358056,38.553118 101.669683,34.0892089 103.195781,29.5544258 C104.243814,26.4388513 105.108612,23.2598934 106.061032,20.1114748 C106.36414,19.1091552 106.621296,18.0849396 107.0223,17.1232429 C107.282025,16.5003585 107.664191,15.6588018 108.175935,15.4919887 C108.663419,15.3335305 109.543344,15.7677058 109.985161,16.2111004 C111.929388,18.1609995 112.323827,20.7576958 112.556723,23.3474775 C113.02908,28.5964745 113.416099,33.8532504 113.841077,39.1062808 C113.868191,39.4407715 113.839365,39.8147327 113.9815,40.0959238 C114.156172,40.4410744 114.436161,40.8323218 114.763529,40.9576478 C114.932778,41.0227597 115.386868,40.6075994 115.559828,40.3171889 C115.799574,39.9149934 115.898041,39.4269424 116.052164,38.9734641 C117.756359,33.9537993 119.38863,28.9064762 121.216979,23.9329082 C121.637962,22.7879764 122.632622,21.7911308 123.540518,20.9126966 C124.55316,19.9322731 125.669691,20.1273206 126.163454,21.4635546 C126.551329,22.5131236 126.733707,23.8603056 126.434025,24.9078578 C125.460484,28.3075046 124.139312,31.6037214 123.105265,34.9878105 C121.067709,41.658897 119.215385,48.3887571 117.10248,55.0347784 C116.509108,56.9019912 115.483338,58.7254119 114.281753,60.2728274 C112.977706,61.9519071 111.467591,61.5632526 110.621916,59.5234645 C110.093333,58.2474446 109.595574,56.9051603 109.411198,55.5473184 C108.927995,51.9932469 108.521569,48.4207368 108.295522,44.8424645 C108.194772,43.251257 108.685681,41.6312388 108.757604,40.0172709 C108.840945,38.154956 108.798704,36.2825573 108.712509,34.4190899 C108.695385,34.0520433 108.27269,33.4741033 107.95788,33.4136011 C107.611961,33.3470487 106.967215,33.6656936 106.811951,33.9909649 C105.950578,35.7947944 105.088063,37.612453 104.429903,39.4978164 C102.540475,44.909305 100.763786,50.3614165 98.9000455,55.7824126 C98.6557329,56.4928811 98.2498771,57.1955708 97.7546873,57.7542077 C97.3225735,58.2413944 96.3310523,58.9481175 96.1580927,58.8132841 C95.5655774,58.3497221 95.2245101,57.5588721 94.7875443,56.8930599 C94.9131256,56.8357269 95.0387069,56.7783938 95.1640027,56.7210608" id="Fill-1" fill="#000000"></path>
                    <path d="M57.9315249,23.2293542 C57.8735863,23.2201348 57.8153622,23.2109155 57.7574236,23.2016961 C57.7851086,22.675327 57.9286708,22.1195712 57.8082269,21.6303678 C57.6857852,21.1316569 57.3036186,20.6980579 57.0353313,20.2356483 C56.6411774,20.5375831 56.0543703,20.7553909 55.8834086,21.1549935 C54.4332303,24.5379301 53.0389928,27.945932 51.676436,31.3660342 C51.3587725,32.1632226 51.6718694,32.8298991 52.5783378,32.944277 C54.5151435,33.1880144 56.3377844,31.954346 56.7484923,30.0110733 C57.222847,27.7675946 57.5439355,25.4915598 57.9315249,23.2293542 M53.8138863,56.2474151 C54.0570573,54.0373566 54.3336215,51.8546681 54.5294141,49.6650651 C54.7637374,47.041575 54.9552488,44.4137633 55.1150795,41.7847992 C55.2058405,40.2926999 54.4340865,39.6525292 52.9993205,39.9210436 C50.1417758,40.4551915 48.2357946,42.4944034 47.6878036,45.3962036 C46.8615359,49.773681 45.9550675,54.1353125 45.0611572,58.499537 C44.9669712,58.9593537 44.8359671,59.4917729 44.5348575,59.8104178 C43.9460525,60.432726 43.1625967,61.4200641 42.5749334,61.3442923 C41.9196275,61.2598773 41.1567213,60.2569816 40.8504742,59.4880275 C39.5221669,56.1500354 39.8635196,52.6639569 40.5385189,49.2766987 C41.0211506,46.8543063 41.9587289,44.5157527 42.7872799,42.1737418 C44.5260097,37.2598117 46.1742639,32.3046825 48.1521689,27.4892845 C49.6186156,23.9196554 51.5642691,20.5514121 53.2573329,17.0742649 C53.6945841,16.1759515 53.8638334,15.1309923 54.3707251,14.2839616 C55.1467602,12.9883505 55.9847298,11.6849605 57.0210607,10.6048524 C58.5657103,8.99462985 61.0716275,9.60109226 61.865929,11.7085851 C62.9071119,14.4720946 63.3455047,17.3272217 62.9861711,20.3013364 C62.1245123,27.4356968 61.2697034,34.5712097 60.4922412,41.7153657 C59.9742184,46.4737187 59.6899481,51.2591537 59.0974329,56.0068469 C58.9079193,57.5240113 58.1490088,58.9988241 57.4777199,60.4093894 C57.2379738,60.9132862 56.4416744,61.5136984 55.9818757,61.4511795 C55.4127642,61.3739672 54.6378707,60.7441682 54.468336,60.1915816 C54.0836006,58.9365933 54.0145309,57.5824967 53.8138863,56.2474151" id="Fill-3" fill="#000000"></path>
                    <g id="Group-7" transform="translate(142.991401, 19.747050)">
                        <mask id="mask-2" fill="white">
                            <use xlink:href="#path-1"></use>
                        </mask>
                        <g id="Clip-6"></g>
                        <path d="M14.8793541,11.6983862 C16.1868264,11.5563501 16.9585804,10.8519318 17.3872692,9.83146154 C17.8670467,8.6888345 18.2891711,7.49492465 18.5143611,6.28142362 C18.625101,5.68677354 18.4187481,4.67379404 18.0180297,4.43985225 C17.6061802,4.19928402 16.6206526,4.48796589 16.1716996,4.87892527 C15.137652,5.78011977 14.1806656,6.81326666 13.380085,7.9302523 C12.8352336,8.69027503 12.1197057,9.88620162 12.3765765,10.5136957 C12.6363014,11.1481044 13.999429,11.3224083 14.8793541,11.6983862 M0.0661870379,29.4641335 C0.0750348092,25.7827194 0.834801497,22.3274683 2.22047665,18.8635739 C3.50054938,15.6632963 4.6638886,12.431327 6.34781928,9.41918234 C8.63967747,5.31972693 11.9430357,2.31248007 16.1902514,0.409254088 C18.0970888,-0.444979189 19.8612202,0.328296398 21.3961659,1.44931551 C23.834155,3.22980848 24.3307718,4.50467602 23.4120307,7.36758195 C21.4284174,13.5480245 20.684063,19.8584028 20.5796022,26.3425087 C20.4956911,31.5503066 19.8680701,36.7543591 19.3440537,41.945735 C19.2073414,43.2963743 18.650788,44.6354894 18.1127865,45.9048829 C17.5359688,47.2664703 16.3597861,47.3324465 15.6959178,45.9826715 C15.1171023,44.8054717 14.7363627,43.4677972 14.5611198,42.1603737 C13.8535835,36.8912093 14.3613314,31.6569057 15.0608762,26.4133827 C15.3756856,24.0520687 15.2903474,21.6224737 15.2035822,19.2309086 C15.1850304,18.7238427 14.4475258,17.9528719 13.9069555,17.8042094 C10.9700663,16.998666 8.43646414,18.6469185 7.86735265,21.6760614 C7.10587349,25.7276912 6.41831604,29.7937264 5.69251337,33.8522708 C5.49015628,34.9819331 5.40424728,36.1625901 4.99839144,37.2153282 C4.71726064,37.945676 4.03284272,38.9260996 3.43033803,39.0024476 C2.86779102,39.0733216 1.78122762,38.2058354 1.61026584,37.5650884 C0.937549809,35.0484855 0.533406447,32.4584156 0.03764584,29.8936991 C0.011102526,29.7577132 0.0547705587,29.6076101 0.0661870379,29.4641335" id="Fill-5" fill="#000000" mask="url(#mask-2)"></path>
                    </g>
                    <path d="M142.827803,27.5835815 C142.435933,26.5821262 141.974136,25.0200173 141.227498,23.6114688 C140.577044,22.3852911 139.592373,22.4927545 138.790651,23.6350934 C134.947578,29.1114058 132.262423,35.1774704 130.027076,41.4486663 C128.954212,44.4587942 128.144784,47.5683186 127.315948,50.6602685 C127.169817,51.2059406 127.517734,51.8867343 127.637321,52.5052971 C128.143928,52.36038 128.766411,52.3580751 129.138874,52.0486497 C132.752475,49.0463006 135.933391,45.6506873 138.286328,41.5227094 C140.652108,37.3725474 142.410531,33.0192709 142.827803,27.5835815 M146.552144,28.6328623 C146.222208,32.3252244 145.541786,36.5160093 143.611544,40.2988366 C141.575986,44.2882357 139.384308,48.2349951 136.861837,51.9224594 C134.45667,55.438789 131.136472,58.0150297 126.917227,59.1977035 C125.6617,59.5500567 124.596828,59.305455 123.84648,58.3135072 C121.895118,55.7343854 120.424105,53.0319543 121.790086,49.5908203 C122.259874,48.4069941 122.247602,47.0341707 122.670582,45.824415 C123.283362,44.0727326 124.145877,42.4118035 124.806891,40.6751026 C126.641804,35.8556711 128.397944,31.0054124 130.246558,26.1911668 C130.997477,24.2355056 131.882825,22.3308391 132.747908,20.4215629 C134.746078,16.0109534 140.255385,15.5782187 143.361809,19.6304248 C145.259513,22.1058286 146.39003,24.9220614 146.552144,28.6328623" id="Fill-8" fill="#000000"></path>
                    <path d="M80.6555129,48.9332191 C80.6555129,50.1801404 80.4143398,51.4927498 80.723441,52.6561204 C81.0319713,53.8180506 81.6507445,55.1902978 82.5706273,55.81808 C83.7082794,56.5953891 84.89331,55.4801321 85.8474422,54.7051279 C88.5468687,52.5129319 90.4303024,49.7010207 91.4823309,46.3947202 C92.5985772,42.8884743 93.7390834,39.3658064 94.4802983,35.7688073 C95.1849805,32.3489931 95.5437434,28.7773473 94.5336704,25.3592617 C94.1201084,23.9593563 93.1237352,22.1650343 91.9529753,21.7150133 C90.6298053,21.2065068 89.3677136,22.7916641 88.669025,24.1500823 C87.1235192,27.1567529 85.6419456,30.1968438 84.1523805,33.2323251 C81.7258078,38.1776587 80.7268659,43.4566187 80.6555129,48.9332191 M76.3800415,51.0997737 C76.7682018,42.4482489 78.0014669,34.0133795 81.7343702,26.0164307 C83.5661443,22.0927198 85.8337425,18.6014554 88.5751245,15.3285751 C90.7282725,12.7580964 93.5424346,12.8122603 95.4535532,15.5919037 C98.1915103,19.5749644 98.8713616,24.0521264 98.5351463,28.7635182 C97.9015317,37.6515778 95.9122102,46.1916057 91.9641063,54.2018073 C90.626095,56.9160507 89.0203672,59.4562783 86.5880863,61.3592162 C84.6920945,62.8423841 83.8150235,62.8109806 81.6841377,61.6280188 C77.5176936,59.3151065 76.2384771,55.6002722 76.3800415,51.0997737" id="Fill-10" fill="#000000"></path>
                    <path d="M18.5398199,55.5025179 C19.2850305,51.9475822 19.9189305,48.3644121 20.8005681,44.8443372 C22.2173532,39.1882469 23.613874,33.5151584 25.3640203,27.9599051 C26.9377819,22.964153 28.0334785,17.7485762 30.9609492,13.2636354 C31.6276715,12.2423009 32.3971422,11.4076588 33.7465701,11.8147521 C35.0283553,12.201678 35.9981852,13.5206257 35.7010713,14.9254289 C35.1998879,17.2968266 34.5888208,19.6725458 33.7288745,21.9321585 C32.334637,25.5948457 30.6164569,29.1313427 29.1945344,32.7842343 C27.8442504,36.2527384 26.6335327,39.7814565 25.5041575,43.3297657 C25.1822128,44.3418809 25.2801091,45.519945 25.343756,46.6127297 C25.3691577,47.049786 25.7396224,47.6859233 26.1026665,47.821333 C26.4525816,47.9512686 27.1227289,47.6787207 27.4321155,47.3629569 C28.6662369,46.1039351 29.7722083,44.7167064 31.0054734,43.4565322 C32.5230089,41.9059476 33.8090753,41.6201468 35.4647502,42.6602082 C36.1297601,43.0779614 36.7459646,43.9892396 36.8735437,44.761939 C37.0376556,45.7556154 36.9391885,46.9555755 36.5162079,47.8576343 C34.7338101,51.6609171 33.1771732,55.7436624 29.6412042,58.256808 C27.7689016,59.5872799 25.4356587,60.4412251 23.185756,60.9926593 C20.979236,61.5334337 18.9339738,59.1614598 18.8063946,56.4290657 C18.7929803,56.1421125 18.8043968,55.8540068 18.8043968,55.5667655 L18.5398199,55.5025179 Z" id="Fill-12" fill="#000000"></path>
                    <g id="Group-16" transform="translate(0.000000, 16.289782)">
                        <mask id="mask-4" fill="white">
                            <use xlink:href="#path-3"></use>
                        </mask>
                        <g id="Clip-15"></g>
                        <path d="M17.9806978,9.92388584 C17.7144084,9.02297944 17.5234678,7.81207136 17.0117241,6.7599095 C15.8663658,4.40320521 13.8242431,4.07361234 11.9433782,5.86735817 C11.2578186,6.5207818 10.6170687,7.24968912 10.0816359,8.03160787 C5.82899738,14.2417253 3.38672708,21.0162418 4.14934789,28.6746664 C4.34571133,30.6487664 4.81121827,32.6349668 5.45368063,34.5108227 C5.9271791,35.8931537 7.11706164,36.13401 8.19106692,35.1642464 C9.26421596,34.1956351 10.4786439,33.1253226 10.9986646,31.8389309 C13.0907344,26.6619603 15.0244005,21.4135395 16.8293459,16.1265126 C17.4700958,14.2495042 17.5785523,12.1869558 17.9806978,9.92388584 M21.0657159,11.2465789 C20.6612871,13.1132155 20.2751247,15.1800855 19.7619539,17.2141114 C18.1530866,23.5919064 15.9708266,29.7654344 13.0193814,35.6410612 C11.3448693,38.9741556 9.06870875,41.8289946 6.09043475,44.1004196 C5.1337338,44.8299031 4.39223348,44.772282 3.64759363,43.853513 C2.0458616,41.8773963 1.00553494,39.6457299 0.740101802,37.1011807 C0.456687707,34.3854968 0.199531514,31.6646269 0.0436965739,28.9391474 C-0.110140483,26.2465119 0.129320168,23.6011258 0.963008557,20.9865669 C1.74189785,18.5434309 2.02645359,15.9306007 2.89696013,13.5283757 C4.5831741,8.87633366 7.26633211,4.79733375 10.994098,1.55038298 C12.9240538,-0.131001643 15.4194107,0.120514597 17.6738799,0.705945295 C19.3461087,1.14040863 19.9120806,2.87134742 20.1926406,4.44757348 C20.5776614,6.61124698 20.7634646,8.81122178 21.0657159,11.2465789" id="Fill-14" fill="#000000" mask="url(#mask-4)"></path>
                    </g>
                    <path d="M61.6658552,5.93373771 C62.7664038,5.02735731 63.8441195,4.09101392 64.9746363,3.22496831 C65.9107876,2.50729711 66.9399832,1.91351135 67.872995,1.19238289 C69.3385855,0.0595514396 70.933753,-0.340051109 72.6704849,0.317117898 C73.1123027,0.48421918 73.6682852,1.04055121 73.6919744,1.44678019 C73.7168052,1.87115982 73.2567211,2.4813676 72.8428737,2.74152701 C72.128773,3.19039563 71.2993658,3.46755327 70.4956456,3.75191356 C68.0907643,4.60182525 65.6790331,5.43243386 63.2595957,6.2388416 C62.8480317,6.3759799 62.3853788,6.35782924 61.9461298,6.41112879 C61.8528001,6.25209446 61.759185,6.09306014 61.6658552,5.93373771" id="Fill-17" fill="#000000"></path>
                </g>
            </g>
        </g>
    </g>
</svg>