<?xml version="1.0" encoding="UTF-8" standalone="no"?>
<svg width="311px" height="311px" viewBox="0 0 311 311" version="1.1" xmlns="http://www.w3.org/2000/svg" xmlns:xlink="http://www.w3.org/1999/xlink">
    <!-- Generator: Sketch 42 (36781) - http://www.bohemiancoding.com/sketch -->
    <title>Shape</title>
    <desc>Created with Sketch.</desc>
    <defs></defs>
    <g id="MAIN" stroke="none" stroke-width="1" fill="none" fill-rule="evenodd">
        <g id="01---OLÃ-ONDA---b" transform="translate(-985.000000, -8368.000000)" fill-rule="nonzero" fill="#FFFFFF">
            <path d="M1037.72746,8536.45833 L985,8536.45833 L985,8510.54167 L1037.72746,8510.54167 C1037.19617,8514.792 1036.83333,8519.10713 1036.83333,8523.5 C1036.83333,8527.89288 1037.19617,8532.208 1037.72746,8536.45833 Z M1077.04304,8441.707 L1039.71008,8404.37404 L1021.387,8422.69712 L1058.71996,8460.03008 C1064.04583,8453.17512 1070.18808,8447.03287 1077.04304,8441.707 L1077.04304,8441.707 Z M1222.293,8460.03008 L1259.62596,8422.69712 L1241.30288,8404.37404 L1203.96992,8441.707 C1210.81192,8447.03287 1216.95417,8453.18808 1222.293,8460.03008 L1222.293,8460.03008 Z M1140.5,8419.83333 C1144.89288,8419.83333 1149.208,8420.19617 1153.45833,8420.72746 L1153.45833,8368 L1127.54167,8368 L1127.54167,8420.72746 C1131.792,8420.19617 1136.10713,8419.83333 1140.5,8419.83333 L1140.5,8419.83333 Z M1140.5,8627.16667 C1136.10713,8627.16667 1131.792,8626.80383 1127.54167,8626.27254 L1127.54167,8679 L1153.45833,8679 L1153.45833,8626.27254 C1149.208,8626.80383 1144.89288,8627.16667 1140.5,8627.16667 Z M1243.27254,8510.54167 C1243.80383,8514.792 1244.16667,8519.10713 1244.16667,8523.5 C1244.16667,8527.89288 1243.80383,8532.208 1243.27254,8536.45833 L1296,8536.45833 L1296,8510.54167 L1243.27254,8510.54167 Z M1203.96992,8605.293 L1241.28992,8642.613 L1259.62596,8624.28992 L1222.30596,8586.96992 C1216.96713,8593.81192 1210.82488,8599.95417 1203.96992,8605.293 Z M1058.707,8586.95696 L1021.387,8624.27696 L1039.71008,8642.60004 L1077.03008,8605.28004 C1070.18808,8599.95417 1064.03287,8593.81192 1058.707,8586.95696 Z M1088.66667,8523.5 C1088.66667,8552.08608 1111.91392,8575.33333 1140.5,8575.33333 C1169.08608,8575.33333 1192.33333,8552.08608 1192.33333,8523.5 C1192.33333,8494.91392 1169.08608,8471.66667 1140.5,8471.66667 C1111.91392,8471.66667 1088.66667,8494.91392 1088.66667,8523.5 L1088.66667,8523.5 Z M1218.25,8523.5 C1218.25,8566.44392 1183.44392,8601.25 1140.5,8601.25 C1097.55608,8601.25 1062.75,8566.44392 1062.75,8523.5 C1062.75,8480.55608 1097.55608,8445.75 1140.5,8445.75 C1183.44392,8445.75 1218.25,8480.55608 1218.25,8523.5 L1218.25,8523.5 Z" id="Shape"></path>
        </g>
    </g>
</svg>