<?xml version="1.0" encoding="UTF-8" standalone="no"?>
<svg width="386px" height="446px" viewBox="0 0 386 446" version="1.1" xmlns="http://www.w3.org/2000/svg" xmlns:xlink="http://www.w3.org/1999/xlink">
    <!-- Generator: Sketch 42 (36781) - http://www.bohemiancoding.com/sketch -->
    <title>Page 1</title>
    <desc>Created with Sketch.</desc>
    <defs>
        <polygon id="path-1" points="0.00449230769 0 146 3.98199991e-14 146 268.997758 0.00449230769 268.997758 0.00449230769 1.19459997e-13"></polygon>
        <polygon id="path-3" points="313 302.9974 313 160 0 160 0 302.9974 0 445.9948 313 445.9948 313 302.9974"></polygon>
    </defs>
    <g id="MAIN" stroke="none" stroke-width="1" fill="none" fill-rule="evenodd">
        <g id="01---OLÃ-ONDA---b" transform="translate(-139.000000, -9117.000000)">
            <g id="Page-1" transform="translate(139.000000, 9117.000000)">
                <g transform="translate(240.000000, 0.000000)">
                    <mask id="mask-2" fill="white">
                        <use xlink:href="#path-1"></use>
                    </mask>
                    <g id="Clip-2"></g>
                    <path d="M96.6677231,164.962008 C85.2909538,154.986592 78.6198769,145.526758 78.6198769,128.871175 L78.6198769,56.039425 L67.3891077,56.039425 L67.3891077,128.871175 C67.3891077,145.504342 60.6843385,155.009008 49.3300308,164.962008 C40.4128,172.785425 33.6968,183.3773 33.6968,196.143592 C33.6968,217.8093 51.2954154,235.372758 73.0044923,235.372758 C94.7023385,235.372758 112.312185,217.8093 112.312185,196.143592 C112.312185,183.3773 105.584954,172.796633 96.6677231,164.962008 M73.0044923,-0.00224166667 C51.2954154,-0.00224166667 33.6968,17.5612167 33.6968,39.226925 L33.6968,123.569633 C33.6968,130.148925 30.7992615,136.414383 25.7791077,140.662342 C10.0223385,154.022675 0.00449230769,173.89505 0.00449230769,196.143592 C0.00449230769,236.381508 32.6748,268.997758 73.0044923,268.997758 C113.322954,268.997758 146.004492,236.381508 146.004492,196.143592 C146.004492,173.89505 135.986646,154.022675 120.229877,140.662342 C115.198492,136.403175 112.312185,130.148925 112.312185,123.569633 L112.312185,39.226925 C112.312185,17.5612167 94.7023385,-0.00224166667 73.0044923,-0.00224166667 M73.0044923,22.414425 C82.2923385,22.414425 89.8506462,29.9576333 89.8506462,39.226925 L89.8506462,123.569633 C89.8506462,141.155508 95.6120308,149.203092 105.697262,157.75505 C117.029108,167.3718 123.542954,181.3598 123.542954,196.143592 C123.542954,223.962675 100.868031,246.581092 73.0044923,246.581092 C45.1297231,246.581092 22.4660308,223.962675 22.4660308,196.143592 C22.4660308,181.3598 28.9686462,167.3718 40.3117231,157.75505 C50.3857231,149.236717 56.1583385,141.177925 56.1583385,123.569633 L56.1583385,39.226925 C56.1583385,29.9576333 63.7054154,22.414425 73.0044923,22.414425" id="Fill-1" fill="#FFE581" mask="url(#mask-2)"></path>
                </g>
                <mask id="mask-4" fill="white">
                    <use xlink:href="#path-3"></use>
                </mask>
                <g id="Clip-2"></g>
                <path d="M286.916667,393.1238 C286.916667,406.1498 274.879208,419.9948 252.591,419.9948 L31.730375,419.9948 C53.483875,325.9268 101.451125,185.9948 194.112167,185.9948 C210.166458,185.9948 223.468958,190.5968 231.515667,198.9688 C237.0975,204.7538 239.888417,211.9428 239.562375,219.7688 C238.727708,240.1788 221.52575,244.9238 202.315375,239.0868 C165.277042,227.8808 111.101958,247.1728 91.2655833,311.5748 C108.37625,290.2028 126.986708,276.5008 145.884083,269.2728 C140.315292,280.5308 137.380917,293.5828 137.380917,306.2708 C137.380917,379.3568 194.255625,404.5768 240.084042,404.5768 C258.837958,404.5768 275.140042,400.9238 286.929708,392.6948 L286.916667,393.1238 Z M249.043667,367.9948 L222.960333,367.9948 L249.043667,367.9948 Z M196.877,368.0208 C179.766333,352.2778 163.46425,329.7488 163.46425,306.2708 C163.46425,289.3318 173.610667,264.1118 191.451667,264.1118 C204.493333,264.1118 222.347375,272.1328 241.909875,261.5638 C256.8165,253.5168 264.889292,239.1778 265.619625,220.7958 C266.219542,205.9758 260.794208,191.8318 250.32175,180.9638 C237.306167,167.4308 217.339375,159.9948 194.112167,159.9948 C64.282375,159.9948 5.19058333,390.9788 0,445.9948 L252.591,445.9948 C290.411833,445.9948 313,419.1108 313,393.1238 C313,375.4048 303.257875,359.9218 286.264583,350.6788 C286.799292,354.2148 289.159833,365.1088 275.127,372.2718 C275.127,372.2718 223.338542,392.3698 196.877,368.0208 L196.877,368.0208 Z" id="Fill-1" fill="#FFFFFF" mask="url(#mask-4)"></path>
            </g>
        </g>
    </g>
</svg>