<?xml version="1.0" encoding="UTF-8" standalone="no"?>
<svg width="847px" height="367px" viewBox="0 0 847 367" version="1.1" xmlns="http://www.w3.org/2000/svg" xmlns:xlink="http://www.w3.org/1999/xlink">
    <!-- Generator: Sketch 50.2 (55047) - http://www.bohemiancoding.com/sketch -->
    <title>Artboard 2</title>
    <desc>Created with Sketch.</desc>
    <defs></defs>
    <g id="Artboard-2" stroke="none" stroke-width="1" fill="none" fill-rule="evenodd">
        <path d="M626.341775,370.066574 C626.341775,380.120766 617.040777,390.807107 599.81932,390.807107 L429.166667,390.807107 C445.97497,318.200193 483.037885,210.192893 554.634407,210.192893 C567.039096,210.192893 577.317555,213.744973 583.535016,220.206948 C587.847938,224.672133 590.004399,230.221003 589.752476,236.261545 C589.107553,252.015118 575.816094,255.677573 560.97279,251.172252 C532.354335,242.522838 490.494806,257.413476 475.16781,307.122521 C488.38873,290.626423 502.768496,280.050457 517.369954,274.471485 C513.067109,283.161036 510.799802,293.235295 510.799802,303.028599 C510.799802,359.440438 554.745253,378.906637 590.155553,378.906637 C604.646165,378.906637 617.242315,376.087048 626.351852,369.735448 L626.341775,370.066574 Z M478.462963,350.42132 L458.296296,350.42132 L478.462963,350.42132 Z M561.218,350.747364 C581.677083,369.5625 621.718,354.032227 621.718,354.032227 C632.567667,348.497182 630.742583,340.079091 630.329167,337.346727 C643.46775,344.489045 651,356.453182 651,370.145136 C651,390.226 633.535667,411 604.294,411 L409,411 C413.013167,368.487636 458.70075,190 559.080333,190 C577.03875,190 592.476333,195.746 602.5395,206.203318 C610.636417,214.601318 614.831083,225.530773 614.36725,236.982591 C613.802583,251.186864 607.561,262.267 596.03575,268.485136 C580.91075,276.652091 567.106667,270.454045 557.023333,270.454045 C543.229333,270.454045 535.3845,289.942227 535.3845,303.031455 C535.3845,321.173545 547.988667,338.582318 561.218,350.747364 Z" id="Fill-1" fill="#FFFFFF"></path>
        <path d="M842.341775,355.066574 C842.341775,365.120766 833.040777,375.807107 815.81932,375.807107 L645.166667,375.807107 C661.97497,303.200193 699.037885,195.192893 770.634407,195.192893 C783.039096,195.192893 793.317555,198.744973 799.535016,205.206948 C803.847938,209.672133 806.004399,215.221003 805.752476,221.261545 C805.107553,237.015118 791.816094,240.677573 776.97279,236.172252 C748.354335,227.522838 706.494806,242.413476 691.16781,292.122521 C704.38873,275.626423 718.768496,265.050457 733.369954,259.471485 C729.067109,268.161036 726.799802,278.235295 726.799802,288.028599 C726.799802,344.440438 770.745253,363.906637 806.155553,363.906637 C820.646165,363.906637 833.242315,361.087048 842.351852,354.735448 L842.341775,355.066574 Z M694.462963,335.42132 L674.296296,335.42132 L694.462963,335.42132 Z M777.218,335.747364 C797.677083,354.5625 837.718,339.032227 837.718,339.032227 C848.567667,333.497182 846.742583,325.079091 846.329167,322.346727 C859.46775,329.489045 867,341.453182 867,355.145136 C867,375.226 849.535667,396 820.294,396 L625,396 C629.013167,353.487636 674.70075,175 775.080333,175 C793.03875,175 808.476333,180.746 818.5395,191.203318 C826.636417,199.601318 830.831083,210.530773 830.36725,221.982591 C829.802583,236.186864 823.561,247.267 812.03575,253.485136 C796.91075,261.652091 783.106667,255.454045 773.023333,255.454045 C759.229333,255.454045 751.3845,274.942227 751.3845,288.031455 C751.3845,306.173545 763.988667,323.582318 777.218,335.747364 Z" id="Fill-1-Copy-2" fill="#FFFFFF"></path>
        <path d="M425.341775,405.066574 C425.341775,415.120766 416.040777,425.807107 398.81932,425.807107 L228.166667,425.807107 C244.97497,353.200193 282.037885,245.192893 353.634407,245.192893 C366.039096,245.192893 376.317555,248.744973 382.535016,255.206948 C386.847938,259.672133 389.004399,265.221003 388.752476,271.261545 C388.107553,287.015118 374.816094,290.677573 359.97279,286.172252 C331.354335,277.522838 289.494806,292.413476 274.16781,342.122521 C287.38873,325.626423 301.768496,315.050457 316.369954,309.471485 C312.067109,318.161036 309.799802,328.235295 309.799802,338.028599 C309.799802,394.440438 353.745253,413.906637 389.155553,413.906637 C403.646165,413.906637 416.242315,411.087048 425.351852,404.735448 L425.341775,405.066574 Z M277.462963,385.42132 L257.296296,385.42132 L277.462963,385.42132 Z M360.218,385.747364 C380.677083,404.5625 420.718,389.032227 420.718,389.032227 C431.567667,383.497182 429.742583,375.079091 429.329167,372.346727 C442.46775,379.489045 450,391.453182 450,405.145136 C450,425.226 432.535667,446 403.294,446 L208,446 C212.013167,403.487636 257.70075,225 358.080333,225 C376.03875,225 391.476333,230.746 401.5395,241.203318 C409.636417,249.601318 413.831083,260.530773 413.36725,271.982591 C412.802583,286.186864 406.561,297.267 395.03575,303.485136 C379.91075,311.652091 366.106667,305.454045 356.023333,305.454045 C342.229333,305.454045 334.3845,324.942227 334.3845,338.031455 C334.3845,356.173545 346.988667,373.582318 360.218,385.747364 Z" id="Fill-1-Copy" fill="#FFFFFF"></path>
    </g>
</svg>