<?xml version="1.0" encoding="utf-8"?>
<!-- Generator: Adobe Illustrator 21.0.2, SVG Export Plug-In . SVG Version: 6.00 Build 0)  -->
<svg version="1.1" id="Layer_1" xmlns="http://www.w3.org/2000/svg" xmlns:xlink="http://www.w3.org/1999/xlink" x="0px" y="0px"
	 viewBox="0 0 256 65" style="enable-background:new 0 0 256 65;" xml:space="preserve">
<style type="text/css">
	.st0{fill:#FFFFFF;}
</style>
<path class="st0" d="M253.3,38.9c2.4-1.2,3.3-4.2,1.9-6.6c-12.3-20.6-33-30.2-61.7-28.5c-19.4,1-39.7,7.5-58.8,14.3
	c-21.4,7.5-42,14.3-59.7,15.5c-22.7,1.2-36.1-4.6-46.3-20l-0.6-0.9c-1.3-2-3.9-2.7-6-1.6L3.4,20.9c-2.3,1.2-3.2,4-2,6.3l0,0
	c0,0.1,0.1,0.2,0.1,0.3c13.3,30.7,49.3,35,68.4,35c3.3,0,6.1-0.1,8.2-0.3c23.5-1.7,46.7-9.2,70.4-17.4l0.1,0
	c16.9-6.3,32.9-12.2,45.2-12.6l0.2,0c15-1.1,26.1,3.6,34.7,14.8c1.3,1.8,3.8,2.3,5.8,1.3L253.3,38.9z"/>
</svg>
